<mxfile host="app.diagrams.net" modified="2021-02-27T05:07:34.394Z" agent="5.0 (X11; Linux x86_64) AppleWebKit/537.36 (KHTML, like Gecko) Chrome/88.0.4324.182 Safari/537.36" etag="Tk1iPN2_3dnIlfCm_wFf" version="14.4.3" type="github">
  <diagram id="p8VolZ-N6K9utPq0kfwX" name="Page-1">
    <mxGraphModel dx="1350" dy="806" grid="1" gridSize="10" guides="1" tooltips="1" connect="1" arrows="1" fold="1" page="1" pageScale="1" pageWidth="827" pageHeight="1169" math="0" shadow="0">
      <root>
        <mxCell id="0" />
        <mxCell id="1" parent="0" />
        <mxCell id="xNPw3v3MWfUP0mEYA9Z2-2" value="&lt;font style=&quot;font-size: 14px&quot;&gt;AWS Cloud&lt;/font&gt;" style="points=[[0,0],[0.25,0],[0.5,0],[0.75,0],[1,0],[1,0.25],[1,0.5],[1,0.75],[1,1],[0.75,1],[0.5,1],[0.25,1],[0,1],[0,0.75],[0,0.5],[0,0.25]];outlineConnect=0;gradientColor=none;html=1;whiteSpace=wrap;fontSize=12;fontStyle=0;shape=mxgraph.aws4.group;grIcon=mxgraph.aws4.group_aws_cloud_alt;strokeColor=#232F3E;fillColor=none;verticalAlign=top;align=left;spacingLeft=30;fontColor=#232F3E;dashed=0;" parent="1" vertex="1">
          <mxGeometry x="29.5" y="200" width="759" height="660" as="geometry" />
        </mxCell>
        <mxCell id="xNPw3v3MWfUP0mEYA9Z2-3" value="&lt;span style=&quot;color: rgb(22 , 25 , 31) ; font-family: &amp;#34;amazon ember&amp;#34; , &amp;#34;helvetica neue&amp;#34; , &amp;#34;roboto&amp;#34; , &amp;#34;arial&amp;#34; , sans-serif ; font-size: 14px ; background-color: rgb(241 , 250 , 255)&quot;&gt;ap-northeast-1&lt;/span&gt;" style="points=[[0,0],[0.25,0],[0.5,0],[0.75,0],[1,0],[1,0.25],[1,0.5],[1,0.75],[1,1],[0.75,1],[0.5,1],[0.25,1],[0,1],[0,0.75],[0,0.5],[0,0.25]];outlineConnect=0;gradientColor=none;html=1;whiteSpace=wrap;fontSize=12;fontStyle=0;shape=mxgraph.aws4.group;grIcon=mxgraph.aws4.group_region;strokeColor=#147EBA;fillColor=none;verticalAlign=top;align=left;spacingLeft=30;fontColor=#147EBA;dashed=1;" parent="1" vertex="1">
          <mxGeometry x="59" y="240" width="700" height="600" as="geometry" />
        </mxCell>
        <mxCell id="xNPw3v3MWfUP0mEYA9Z2-4" value="&lt;font style=&quot;font-size: 14px&quot;&gt;VPC&lt;/font&gt;" style="points=[[0,0],[0.25,0],[0.5,0],[0.75,0],[1,0],[1,0.25],[1,0.5],[1,0.75],[1,1],[0.75,1],[0.5,1],[0.25,1],[0,1],[0,0.75],[0,0.5],[0,0.25]];outlineConnect=0;gradientColor=none;html=1;whiteSpace=wrap;fontSize=12;fontStyle=0;shape=mxgraph.aws4.group;grIcon=mxgraph.aws4.group_vpc;strokeColor=#248814;fillColor=none;verticalAlign=top;align=left;spacingLeft=30;fontColor=#AAB7B8;dashed=0;" parent="1" vertex="1">
          <mxGeometry x="89.5" y="300" width="640" height="430" as="geometry" />
        </mxCell>
        <mxCell id="xNPw3v3MWfUP0mEYA9Z2-5" value="ap-northeast-1c" style="fillColor=none;strokeColor=#147EBA;dashed=1;verticalAlign=top;fontStyle=0;fontColor=#147EBA;fontSize=14;" parent="1" vertex="1">
          <mxGeometry x="440" y="340" width="270" height="350" as="geometry" />
        </mxCell>
        <mxCell id="xNPw3v3MWfUP0mEYA9Z2-6" value="ap-northeast-1a" style="fillColor=none;strokeColor=#147EBA;dashed=1;verticalAlign=top;fontStyle=0;fontColor=#147EBA;fontSize=14;" parent="1" vertex="1">
          <mxGeometry x="110" y="340" width="267" height="350" as="geometry" />
        </mxCell>
        <mxCell id="xNPw3v3MWfUP0mEYA9Z2-7" style="edgeStyle=orthogonalEdgeStyle;rounded=0;orthogonalLoop=1;jettySize=auto;html=1;exitX=0.5;exitY=1;exitDx=0;exitDy=0;" parent="1" source="xNPw3v3MWfUP0mEYA9Z2-5" target="xNPw3v3MWfUP0mEYA9Z2-5" edge="1">
          <mxGeometry relative="1" as="geometry" />
        </mxCell>
        <mxCell id="xNPw3v3MWfUP0mEYA9Z2-8" value="&lt;font style=&quot;font-size: 14px&quot;&gt;Public subnet&lt;/font&gt;" style="points=[[0,0],[0.25,0],[0.5,0],[0.75,0],[1,0],[1,0.25],[1,0.5],[1,0.75],[1,1],[0.75,1],[0.5,1],[0.25,1],[0,1],[0,0.75],[0,0.5],[0,0.25]];outlineConnect=0;gradientColor=none;html=1;whiteSpace=wrap;fontSize=12;fontStyle=0;shape=mxgraph.aws4.group;grIcon=mxgraph.aws4.group_security_group;grStroke=0;strokeColor=#248814;fillColor=#E9F3E6;verticalAlign=top;align=left;spacingLeft=30;fontColor=#248814;dashed=0;" parent="1" vertex="1">
          <mxGeometry x="129" y="370" width="230" height="150" as="geometry" />
        </mxCell>
        <mxCell id="xNPw3v3MWfUP0mEYA9Z2-9" value="&lt;font style=&quot;font-size: 14px&quot;&gt;Public subnet&lt;/font&gt;" style="points=[[0,0],[0.25,0],[0.5,0],[0.75,0],[1,0],[1,0.25],[1,0.5],[1,0.75],[1,1],[0.75,1],[0.5,1],[0.25,1],[0,1],[0,0.75],[0,0.5],[0,0.25]];outlineConnect=0;gradientColor=none;html=1;whiteSpace=wrap;fontSize=12;fontStyle=0;shape=mxgraph.aws4.group;grIcon=mxgraph.aws4.group_security_group;grStroke=0;strokeColor=#248814;fillColor=#E9F3E6;verticalAlign=top;align=left;spacingLeft=30;fontColor=#248814;dashed=0;" parent="1" vertex="1">
          <mxGeometry x="460" y="370" width="230" height="150" as="geometry" />
        </mxCell>
        <mxCell id="xNPw3v3MWfUP0mEYA9Z2-10" value="&lt;font style=&quot;font-size: 14px&quot;&gt;Private subnet&lt;/font&gt;" style="points=[[0,0],[0.25,0],[0.5,0],[0.75,0],[1,0],[1,0.25],[1,0.5],[1,0.75],[1,1],[0.75,1],[0.5,1],[0.25,1],[0,1],[0,0.75],[0,0.5],[0,0.25]];outlineConnect=0;gradientColor=none;html=1;whiteSpace=wrap;fontSize=12;fontStyle=0;shape=mxgraph.aws4.group;grIcon=mxgraph.aws4.group_security_group;grStroke=0;strokeColor=#147EBA;fillColor=#E6F2F8;verticalAlign=top;align=left;spacingLeft=30;fontColor=#147EBA;dashed=0;" parent="1" vertex="1">
          <mxGeometry x="129" y="540" width="230" height="130" as="geometry" />
        </mxCell>
        <mxCell id="xNPw3v3MWfUP0mEYA9Z2-11" value="&lt;font style=&quot;font-size: 14px&quot;&gt;Private subnet&lt;/font&gt;" style="points=[[0,0],[0.25,0],[0.5,0],[0.75,0],[1,0],[1,0.25],[1,0.5],[1,0.75],[1,1],[0.75,1],[0.5,1],[0.25,1],[0,1],[0,0.75],[0,0.5],[0,0.25]];outlineConnect=0;gradientColor=none;html=1;whiteSpace=wrap;fontSize=12;fontStyle=0;shape=mxgraph.aws4.group;grIcon=mxgraph.aws4.group_security_group;grStroke=0;strokeColor=#147EBA;fillColor=#E6F2F8;verticalAlign=top;align=left;spacingLeft=30;fontColor=#147EBA;dashed=0;" parent="1" vertex="1">
          <mxGeometry x="460" y="540" width="230" height="130" as="geometry" />
        </mxCell>
        <mxCell id="i_n1k2-1s-NiqfXJ3xOX-46" style="edgeStyle=orthogonalEdgeStyle;rounded=0;orthogonalLoop=1;jettySize=auto;html=1;startArrow=classic;startFill=1;endArrow=classic;endFill=1;" edge="1" parent="1" source="xNPw3v3MWfUP0mEYA9Z2-12" target="xNPw3v3MWfUP0mEYA9Z2-14">
          <mxGeometry relative="1" as="geometry" />
        </mxCell>
        <mxCell id="xNPw3v3MWfUP0mEYA9Z2-12" value="" style="outlineConnect=0;dashed=0;verticalLabelPosition=bottom;verticalAlign=top;align=center;html=1;shape=mxgraph.aws3.internet_gateway;fillColor=#F58534;gradientColor=none;" parent="1" vertex="1">
          <mxGeometry x="373.5" y="260" width="69" height="72" as="geometry" />
        </mxCell>
        <mxCell id="i_n1k2-1s-NiqfXJ3xOX-50" style="edgeStyle=orthogonalEdgeStyle;rounded=0;orthogonalLoop=1;jettySize=auto;html=1;entryX=0;entryY=0.5;entryDx=0;entryDy=0;entryPerimeter=0;startArrow=none;startFill=0;endArrow=classic;endFill=1;fontSize=14;" edge="1" parent="1" source="xNPw3v3MWfUP0mEYA9Z2-13" target="xNPw3v3MWfUP0mEYA9Z2-37">
          <mxGeometry relative="1" as="geometry" />
        </mxCell>
        <mxCell id="xNPw3v3MWfUP0mEYA9Z2-13" value="" style="points=[[0,0,0],[0.25,0,0],[0.5,0,0],[0.75,0,0],[1,0,0],[0,1,0],[0.25,1,0],[0.5,1,0],[0.75,1,0],[1,1,0],[0,0.25,0],[0,0.5,0],[0,0.75,0],[1,0.25,0],[1,0.5,0],[1,0.75,0]];outlineConnect=0;fontColor=#232F3E;gradientColor=#F78E04;gradientDirection=north;fillColor=#D05C17;strokeColor=#ffffff;dashed=0;verticalLabelPosition=bottom;verticalAlign=top;align=center;html=1;fontSize=12;fontStyle=0;aspect=fixed;shape=mxgraph.aws4.resourceIcon;resIcon=mxgraph.aws4.ec2;" parent="1" vertex="1">
          <mxGeometry x="260" y="570" width="78" height="78" as="geometry" />
        </mxCell>
        <mxCell id="i_n1k2-1s-NiqfXJ3xOX-23" style="edgeStyle=orthogonalEdgeStyle;rounded=0;orthogonalLoop=1;jettySize=auto;html=1;startArrow=classic;startFill=1;entryX=1;entryY=0.25;entryDx=0;entryDy=0;entryPerimeter=0;" edge="1" parent="1" target="xNPw3v3MWfUP0mEYA9Z2-13">
          <mxGeometry relative="1" as="geometry">
            <mxPoint x="390" y="530" as="sourcePoint" />
            <Array as="points">
              <mxPoint x="390" y="560" />
              <mxPoint x="370" y="560" />
              <mxPoint x="370" y="590" />
            </Array>
          </mxGeometry>
        </mxCell>
        <mxCell id="i_n1k2-1s-NiqfXJ3xOX-24" style="edgeStyle=orthogonalEdgeStyle;rounded=0;orthogonalLoop=1;jettySize=auto;html=1;entryX=0;entryY=0.25;entryDx=0;entryDy=0;entryPerimeter=0;startArrow=classic;startFill=1;" edge="1" parent="1" target="xNPw3v3MWfUP0mEYA9Z2-19">
          <mxGeometry relative="1" as="geometry">
            <mxPoint x="430" y="530" as="sourcePoint" />
            <Array as="points">
              <mxPoint x="430" y="560" />
              <mxPoint x="450" y="560" />
              <mxPoint x="450" y="590" />
            </Array>
          </mxGeometry>
        </mxCell>
        <mxCell id="xNPw3v3MWfUP0mEYA9Z2-14" value="" style="points=[[0,0,0],[0.25,0,0],[0.5,0,0],[0.75,0,0],[1,0,0],[0,1,0],[0.25,1,0],[0.5,1,0],[0.75,1,0],[1,1,0],[0,0.25,0],[0,0.5,0],[0,0.75,0],[1,0.25,0],[1,0.5,0],[1,0.75,0]];outlineConnect=0;fontColor=#232F3E;gradientColor=#F78E04;gradientDirection=north;fillColor=#D05C17;strokeColor=#ffffff;dashed=0;verticalLabelPosition=bottom;verticalAlign=top;align=center;html=1;fontSize=12;fontStyle=0;aspect=fixed;shape=mxgraph.aws4.resourceIcon;resIcon=mxgraph.aws4.elastic_load_balancing;" parent="1" vertex="1">
          <mxGeometry x="376" y="440" width="64" height="64" as="geometry" />
        </mxCell>
        <mxCell id="i_n1k2-1s-NiqfXJ3xOX-51" style="edgeStyle=orthogonalEdgeStyle;rounded=0;orthogonalLoop=1;jettySize=auto;html=1;entryX=1;entryY=0.5;entryDx=0;entryDy=0;entryPerimeter=0;startArrow=none;startFill=0;endArrow=classic;endFill=1;fontSize=14;" edge="1" parent="1" source="xNPw3v3MWfUP0mEYA9Z2-19" target="xNPw3v3MWfUP0mEYA9Z2-37">
          <mxGeometry relative="1" as="geometry">
            <Array as="points">
              <mxPoint x="468" y="609" />
              <mxPoint x="468" y="780" />
            </Array>
          </mxGeometry>
        </mxCell>
        <mxCell id="xNPw3v3MWfUP0mEYA9Z2-19" value="" style="points=[[0,0,0],[0.25,0,0],[0.5,0,0],[0.75,0,0],[1,0,0],[0,1,0],[0.25,1,0],[0.5,1,0],[0.75,1,0],[1,1,0],[0,0.25,0],[0,0.5,0],[0,0.75,0],[1,0.25,0],[1,0.5,0],[1,0.75,0]];outlineConnect=0;fontColor=#232F3E;gradientColor=#F78E04;gradientDirection=north;fillColor=#D05C17;strokeColor=#ffffff;dashed=0;verticalLabelPosition=bottom;verticalAlign=top;align=center;html=1;fontSize=12;fontStyle=0;aspect=fixed;shape=mxgraph.aws4.resourceIcon;resIcon=mxgraph.aws4.ec2;" parent="1" vertex="1">
          <mxGeometry x="490" y="571" width="78" height="78" as="geometry" />
        </mxCell>
        <mxCell id="i_n1k2-1s-NiqfXJ3xOX-31" style="edgeStyle=orthogonalEdgeStyle;rounded=0;orthogonalLoop=1;jettySize=auto;html=1;startArrow=classic;startFill=1;" edge="1" parent="1" target="xNPw3v3MWfUP0mEYA9Z2-13">
          <mxGeometry relative="1" as="geometry">
            <mxPoint x="210" y="609" as="sourcePoint" />
          </mxGeometry>
        </mxCell>
        <mxCell id="i_n1k2-1s-NiqfXJ3xOX-34" style="edgeStyle=orthogonalEdgeStyle;rounded=0;orthogonalLoop=1;jettySize=auto;html=1;startArrow=classic;startFill=1;" edge="1" parent="1">
          <mxGeometry relative="1" as="geometry">
            <mxPoint x="180" y="670" as="sourcePoint" />
            <mxPoint x="640" y="670" as="targetPoint" />
            <Array as="points">
              <mxPoint x="180" y="710" />
              <mxPoint x="640" y="710" />
            </Array>
          </mxGeometry>
        </mxCell>
        <mxCell id="xNPw3v3MWfUP0mEYA9Z2-22" value="" style="outlineConnect=0;dashed=0;verticalLabelPosition=bottom;verticalAlign=top;align=center;html=1;shape=mxgraph.aws3.rds_db_instance;fillColor=#2E73B8;gradientColor=none;" parent="1" vertex="1">
          <mxGeometry x="150" y="568" width="60" height="80" as="geometry" />
        </mxCell>
        <mxCell id="xNPw3v3MWfUP0mEYA9Z2-23" value="" style="outlineConnect=0;dashed=0;verticalLabelPosition=bottom;verticalAlign=top;align=center;html=1;shape=mxgraph.aws3.rds_db_instance_standby_multi_az;fillColor=#2E73B8;gradientColor=none;" parent="1" vertex="1">
          <mxGeometry x="610" y="568" width="60" height="80" as="geometry" />
        </mxCell>
        <mxCell id="xNPw3v3MWfUP0mEYA9Z2-24" value="" style="points=[[0,0,0],[0.25,0,0],[0.5,0,0],[0.75,0,0],[1,0,0],[0,1,0],[0.25,1,0],[0.5,1,0],[0.75,1,0],[1,1,0],[0,0.25,0],[0,0.5,0],[0,0.75,0],[1,0.25,0],[1,0.5,0],[1,0.75,0]];outlineConnect=0;fontColor=#232F3E;gradientColor=#F78E04;gradientDirection=north;fillColor=#D05C17;strokeColor=#ffffff;dashed=0;verticalLabelPosition=bottom;verticalAlign=top;align=center;html=1;fontSize=12;fontStyle=0;aspect=fixed;shape=mxgraph.aws4.resourceIcon;resIcon=mxgraph.aws4.ec2;" parent="1" vertex="1">
          <mxGeometry x="160" y="440" width="70" height="70" as="geometry" />
        </mxCell>
        <mxCell id="xNPw3v3MWfUP0mEYA9Z2-27" value="&lt;font style=&quot;font-size: 14px&quot;&gt;Bastion&lt;/font&gt;" style="text;html=1;resizable=0;autosize=1;align=center;verticalAlign=middle;points=[];fillColor=none;strokeColor=none;rounded=0;" parent="1" vertex="1">
          <mxGeometry x="165" y="420" width="60" height="20" as="geometry" />
        </mxCell>
        <mxCell id="xNPw3v3MWfUP0mEYA9Z2-29" value="" style="points=[[0,0,0],[0.25,0,0],[0.5,0,0],[0.75,0,0],[1,0,0],[0,1,0],[0.25,1,0],[0.5,1,0],[0.75,1,0],[1,1,0],[0,0.25,0],[0,0.5,0],[0,0.75,0],[1,0.25,0],[1,0.5,0],[1,0.75,0]];outlineConnect=0;fontColor=#232F3E;gradientColor=#F78E04;gradientDirection=north;fillColor=#D05C17;strokeColor=#ffffff;dashed=0;verticalLabelPosition=bottom;verticalAlign=top;align=center;html=1;fontSize=12;fontStyle=0;aspect=fixed;shape=mxgraph.aws4.resourceIcon;resIcon=mxgraph.aws4.ec2;" parent="1" vertex="1">
          <mxGeometry x="590" y="440" width="70" height="70" as="geometry" />
        </mxCell>
        <mxCell id="xNPw3v3MWfUP0mEYA9Z2-30" value="&lt;font style=&quot;font-size: 14px&quot;&gt;Bastion&lt;/font&gt;" style="text;html=1;resizable=0;autosize=1;align=center;verticalAlign=middle;points=[];fillColor=none;strokeColor=none;rounded=0;" parent="1" vertex="1">
          <mxGeometry x="595" y="420" width="60" height="20" as="geometry" />
        </mxCell>
        <mxCell id="i_n1k2-1s-NiqfXJ3xOX-18" style="edgeStyle=orthogonalEdgeStyle;rounded=0;orthogonalLoop=1;jettySize=auto;html=1;startArrow=none;startFill=0;exitX=0.51;exitY=0;exitDx=0;exitDy=0;exitPerimeter=0;" edge="1" parent="1" source="i_n1k2-1s-NiqfXJ3xOX-48">
          <mxGeometry relative="1" as="geometry">
            <mxPoint x="294" y="420" as="sourcePoint" />
            <mxPoint x="390" y="330" as="targetPoint" />
            <Array as="points">
              <mxPoint x="291" y="390" />
              <mxPoint x="390" y="390" />
            </Array>
          </mxGeometry>
        </mxCell>
        <mxCell id="i_n1k2-1s-NiqfXJ3xOX-36" style="edgeStyle=orthogonalEdgeStyle;rounded=0;orthogonalLoop=1;jettySize=auto;html=1;entryX=0.5;entryY=0;entryDx=0;entryDy=0;entryPerimeter=0;startArrow=classic;startFill=1;endArrow=none;endFill=0;" edge="1" parent="1" source="xNPw3v3MWfUP0mEYA9Z2-32" target="xNPw3v3MWfUP0mEYA9Z2-13">
          <mxGeometry relative="1" as="geometry" />
        </mxCell>
        <mxCell id="xNPw3v3MWfUP0mEYA9Z2-32" value="" style="outlineConnect=0;dashed=0;verticalLabelPosition=bottom;verticalAlign=top;align=center;html=1;shape=mxgraph.aws3.vpc_nat_gateway;fillColor=#F58534;gradientColor=none;" parent="1" vertex="1">
          <mxGeometry x="255.5" y="432" width="69" height="72" as="geometry" />
        </mxCell>
        <mxCell id="i_n1k2-1s-NiqfXJ3xOX-21" style="edgeStyle=orthogonalEdgeStyle;rounded=0;orthogonalLoop=1;jettySize=auto;html=1;startArrow=none;startFill=0;exitX=0;exitY=0.5;exitDx=0;exitDy=0;exitPerimeter=0;" edge="1" parent="1" source="xNPw3v3MWfUP0mEYA9Z2-34">
          <mxGeometry relative="1" as="geometry">
            <mxPoint x="424" y="330" as="targetPoint" />
            <Array as="points">
              <mxPoint x="460" y="468" />
              <mxPoint x="460" y="410" />
              <mxPoint x="424" y="410" />
            </Array>
          </mxGeometry>
        </mxCell>
        <mxCell id="i_n1k2-1s-NiqfXJ3xOX-37" style="edgeStyle=orthogonalEdgeStyle;rounded=0;orthogonalLoop=1;jettySize=auto;html=1;entryX=1;entryY=0.5;entryDx=0;entryDy=0;entryPerimeter=0;startArrow=classic;startFill=1;endArrow=none;endFill=0;" edge="1" parent="1" source="xNPw3v3MWfUP0mEYA9Z2-34" target="xNPw3v3MWfUP0mEYA9Z2-19">
          <mxGeometry relative="1" as="geometry">
            <Array as="points">
              <mxPoint x="529" y="530" />
              <mxPoint x="590" y="530" />
              <mxPoint x="590" y="609" />
            </Array>
          </mxGeometry>
        </mxCell>
        <mxCell id="xNPw3v3MWfUP0mEYA9Z2-34" value="" style="outlineConnect=0;dashed=0;verticalLabelPosition=bottom;verticalAlign=top;align=center;html=1;shape=mxgraph.aws3.vpc_nat_gateway;fillColor=#F58534;gradientColor=none;" parent="1" vertex="1">
          <mxGeometry x="494.5" y="432" width="69" height="72" as="geometry" />
        </mxCell>
        <mxCell id="xNPw3v3MWfUP0mEYA9Z2-37" value="" style="outlineConnect=0;dashed=0;verticalLabelPosition=bottom;verticalAlign=top;align=center;html=1;shape=mxgraph.aws3.s3;fillColor=#E05243;gradientColor=none;strokeWidth=2;fontSize=15;" parent="1" vertex="1">
          <mxGeometry x="378" y="740" width="70" height="80" as="geometry" />
        </mxCell>
        <mxCell id="i_n1k2-1s-NiqfXJ3xOX-8" style="edgeStyle=orthogonalEdgeStyle;rounded=0;orthogonalLoop=1;jettySize=auto;html=1;startArrow=classic;startFill=1;" edge="1" parent="1" source="i_n1k2-1s-NiqfXJ3xOX-3" target="i_n1k2-1s-NiqfXJ3xOX-7">
          <mxGeometry relative="1" as="geometry" />
        </mxCell>
        <mxCell id="i_n1k2-1s-NiqfXJ3xOX-43" style="edgeStyle=orthogonalEdgeStyle;rounded=0;orthogonalLoop=1;jettySize=auto;html=1;startArrow=classic;startFill=1;endArrow=classic;endFill=1;" edge="1" parent="1" source="i_n1k2-1s-NiqfXJ3xOX-3" target="xNPw3v3MWfUP0mEYA9Z2-12">
          <mxGeometry relative="1" as="geometry">
            <Array as="points">
              <mxPoint x="408" y="180" />
              <mxPoint x="408" y="180" />
            </Array>
          </mxGeometry>
        </mxCell>
        <mxCell id="i_n1k2-1s-NiqfXJ3xOX-3" value="" style="outlineConnect=0;dashed=0;verticalLabelPosition=bottom;verticalAlign=top;align=center;html=1;shape=mxgraph.aws3.cloudfront;fillColor=#F58536;gradientColor=none;" vertex="1" parent="1">
          <mxGeometry x="381" y="70" width="56" height="73" as="geometry" />
        </mxCell>
        <mxCell id="i_n1k2-1s-NiqfXJ3xOX-12" style="edgeStyle=orthogonalEdgeStyle;rounded=0;orthogonalLoop=1;jettySize=auto;html=1;entryX=0;entryY=0.5;entryDx=0;entryDy=0;entryPerimeter=0;startArrow=classic;startFill=1;" edge="1" parent="1" source="i_n1k2-1s-NiqfXJ3xOX-7" target="i_n1k2-1s-NiqfXJ3xOX-11">
          <mxGeometry relative="1" as="geometry" />
        </mxCell>
        <mxCell id="i_n1k2-1s-NiqfXJ3xOX-7" value="" style="outlineConnect=0;dashed=0;verticalLabelPosition=bottom;verticalAlign=top;align=center;html=1;shape=mxgraph.aws3.route_53;fillColor=#F58536;gradientColor=none;" vertex="1" parent="1">
          <mxGeometry x="550" y="66.5" width="60" height="80" as="geometry" />
        </mxCell>
        <mxCell id="i_n1k2-1s-NiqfXJ3xOX-11" value="" style="verticalLabelPosition=bottom;html=1;fillColor=#282828;strokeColor=none;verticalAlign=top;pointerEvents=1;align=center;shape=mxgraph.cisco_safe.people_places_things_icons.icon2;" vertex="1" parent="1">
          <mxGeometry x="720" y="76.5" width="60" height="60" as="geometry" />
        </mxCell>
        <mxCell id="i_n1k2-1s-NiqfXJ3xOX-22" value="" style="outlineConnect=0;dashed=0;verticalLabelPosition=bottom;verticalAlign=top;align=center;html=1;shape=mxgraph.aws3.auto_scaling;fillColor=#F58534;gradientColor=none;" vertex="1" parent="1">
          <mxGeometry x="375" y="576" width="66" height="68" as="geometry" />
        </mxCell>
        <mxCell id="i_n1k2-1s-NiqfXJ3xOX-38" value="&lt;font style=&quot;font-size: 14px&quot;&gt;Cloudfront&lt;/font&gt;" style="text;html=1;resizable=0;autosize=1;align=center;verticalAlign=middle;points=[];fillColor=none;strokeColor=none;rounded=0;" vertex="1" parent="1">
          <mxGeometry x="368" y="46.5" width="80" height="20" as="geometry" />
        </mxCell>
        <mxCell id="i_n1k2-1s-NiqfXJ3xOX-39" value="&lt;font&gt;&lt;font style=&quot;font-size: 14px&quot;&gt;Route 53&lt;/font&gt;&lt;br&gt;&lt;/font&gt;" style="text;html=1;resizable=0;autosize=1;align=center;verticalAlign=middle;points=[];fillColor=none;strokeColor=none;rounded=0;" vertex="1" parent="1">
          <mxGeometry x="545" y="40" width="70" height="20" as="geometry" />
        </mxCell>
        <mxCell id="i_n1k2-1s-NiqfXJ3xOX-40" value="&lt;font&gt;&lt;font style=&quot;font-size: 14px&quot;&gt;Users&lt;/font&gt;&lt;br&gt;&lt;/font&gt;" style="text;html=1;resizable=0;autosize=1;align=center;verticalAlign=middle;points=[];fillColor=none;strokeColor=none;rounded=0;" vertex="1" parent="1">
          <mxGeometry x="720" y="46.5" width="50" height="20" as="geometry" />
        </mxCell>
        <mxCell id="i_n1k2-1s-NiqfXJ3xOX-41" value="&lt;font&gt;&lt;font style=&quot;font-size: 14px&quot;&gt;Internet gateway&lt;/font&gt;&lt;br&gt;&lt;/font&gt;" style="text;html=1;resizable=0;autosize=1;align=center;verticalAlign=middle;points=[];fillColor=none;strokeColor=none;rounded=0;" vertex="1" parent="1">
          <mxGeometry x="420" y="250" width="120" height="20" as="geometry" />
        </mxCell>
        <mxCell id="i_n1k2-1s-NiqfXJ3xOX-47" value="&lt;font&gt;&lt;font style=&quot;font-size: 14px&quot;&gt;Application load balancer&lt;/font&gt;&lt;br&gt;&lt;/font&gt;" style="text;html=1;resizable=0;autosize=1;align=center;verticalAlign=middle;points=[];fillColor=none;strokeColor=none;rounded=0;" vertex="1" parent="1">
          <mxGeometry x="324.5" y="504" width="170" height="20" as="geometry" />
        </mxCell>
        <mxCell id="i_n1k2-1s-NiqfXJ3xOX-48" value="&lt;font&gt;&lt;font style=&quot;font-size: 14px&quot;&gt;NAT gateway&lt;/font&gt;&lt;br&gt;&lt;/font&gt;" style="text;html=1;resizable=0;autosize=1;align=center;verticalAlign=middle;points=[];fillColor=none;strokeColor=none;rounded=0;" vertex="1" parent="1">
          <mxGeometry x="240" y="410" width="100" height="20" as="geometry" />
        </mxCell>
        <mxCell id="i_n1k2-1s-NiqfXJ3xOX-49" value="&lt;font&gt;&lt;font style=&quot;font-size: 14px&quot;&gt;NAT gateway&lt;/font&gt;&lt;br&gt;&lt;/font&gt;" style="text;html=1;resizable=0;autosize=1;align=center;verticalAlign=middle;points=[];fillColor=none;strokeColor=none;rounded=0;" vertex="1" parent="1">
          <mxGeometry x="479" y="412" width="100" height="20" as="geometry" />
        </mxCell>
        <mxCell id="i_n1k2-1s-NiqfXJ3xOX-52" value="&lt;font&gt;&lt;font style=&quot;font-size: 14px&quot;&gt;Blog EC2&lt;/font&gt;&lt;br&gt;&lt;/font&gt;" style="text;html=1;resizable=0;autosize=1;align=center;verticalAlign=middle;points=[];fillColor=none;strokeColor=none;rounded=0;" vertex="1" parent="1">
          <mxGeometry x="264" y="649" width="70" height="20" as="geometry" />
        </mxCell>
        <mxCell id="i_n1k2-1s-NiqfXJ3xOX-53" value="&lt;font&gt;&lt;font style=&quot;font-size: 14px&quot;&gt;Blog EC2&lt;/font&gt;&lt;br&gt;&lt;/font&gt;" style="text;html=1;resizable=0;autosize=1;align=center;verticalAlign=middle;points=[];fillColor=none;strokeColor=none;rounded=0;" vertex="1" parent="1">
          <mxGeometry x="494.5" y="649" width="70" height="20" as="geometry" />
        </mxCell>
        <mxCell id="i_n1k2-1s-NiqfXJ3xOX-54" value="&lt;font&gt;&lt;font style=&quot;font-size: 14px&quot;&gt;Auto Scaling&lt;/font&gt;&lt;br&gt;&lt;/font&gt;" style="text;html=1;resizable=0;autosize=1;align=center;verticalAlign=middle;points=[];fillColor=none;strokeColor=none;rounded=0;" vertex="1" parent="1">
          <mxGeometry x="364" y="648" width="90" height="20" as="geometry" />
        </mxCell>
        <mxCell id="i_n1k2-1s-NiqfXJ3xOX-55" value="&lt;font&gt;&lt;font style=&quot;font-size: 14px&quot;&gt;S3 backet for static files&lt;/font&gt;&lt;br&gt;&lt;/font&gt;" style="text;html=1;resizable=0;autosize=1;align=center;verticalAlign=middle;points=[];fillColor=none;strokeColor=none;rounded=0;" vertex="1" parent="1">
          <mxGeometry x="420" y="810" width="160" height="20" as="geometry" />
        </mxCell>
        <mxCell id="i_n1k2-1s-NiqfXJ3xOX-56" value="&lt;font&gt;&lt;font style=&quot;font-size: 14px&quot;&gt;Postgresql master&lt;/font&gt;&lt;br&gt;&lt;/font&gt;" style="text;html=1;resizable=0;autosize=1;align=center;verticalAlign=middle;points=[];fillColor=none;strokeColor=none;rounded=0;" vertex="1" parent="1">
          <mxGeometry x="115" y="648" width="130" height="20" as="geometry" />
        </mxCell>
        <mxCell id="i_n1k2-1s-NiqfXJ3xOX-57" value="&lt;font&gt;&lt;font style=&quot;font-size: 14px&quot;&gt;Postgresql slave&lt;/font&gt;&lt;br&gt;&lt;/font&gt;" style="text;html=1;resizable=0;autosize=1;align=center;verticalAlign=middle;points=[];fillColor=none;strokeColor=none;rounded=0;" vertex="1" parent="1">
          <mxGeometry x="580" y="648" width="120" height="20" as="geometry" />
        </mxCell>
      </root>
    </mxGraphModel>
  </diagram>
</mxfile>
